<svg xmlns="http://www.w3.org/2000/svg" width="37.219" height="37" viewBox="0 0 37.219 37">
  <defs>
    <style>
      .cls-1 {
        fill-rule: evenodd;
      }
    </style>
  </defs>
  <path id="zoom" class="cls-1" d="M110.336,151.888l1.246,0.415,11.313,9.9v1.415l-3.535,3.535h-1.414l-9.9-11.313-0.4-1.2A13.673,13.673,0,1,1,110.336,151.888ZM90.572,135.061a12.384,12.384,0,1,1,0,17.513A12.384,12.384,0,0,1,90.572,135.061Zm1.764,1.774a9.875,9.875,0,1,1,0,13.965A9.875,9.875,0,0,1,92.336,136.835Zm1.091,1.091a8.332,8.332,0,1,1,0,11.783A8.331,8.331,0,0,1,93.426,137.926Zm16.034,17.913-0.707-2.122,0.707-.707,2.122,0.707,9.9,9.9-2.121,2.121Z" transform="translate(-85.688 -130.156)"/>
</svg>
