<svg xmlns="http://www.w3.org/2000/svg" width="48" height="36" viewBox="0 0 48 36">
  <defs>
    <style>
      .cls-1 {
        fill: #5d5d5d;
        fill-rule: evenodd;
      }
    </style>
  </defs>
  <path id="filter" class="cls-1" d="M208,37H187.914a6,6,0,0,1-11.828,0H160V35h16.086a6,6,0,0,1,11.828,0H208v2Zm-26-5a4,4,0,1,1-4,4A4,4,0,0,1,182,32Zm26,17h-4.086a6,6,0,0,1-11.828,0H160V47h32.086a6,6,0,0,1,11.828,0H208v2Zm-10-5a4,4,0,1,1-4,4A4,4,0,0,1,198,44Zm10,17H177.914a6,6,0,0,1-11.828,0H160V59h6.086a6,6,0,0,1,11.828,0H208v2Zm-36-5a4,4,0,1,1-4,4A4,4,0,0,1,172,56Z" transform="translate(-160 -30)"/>
</svg>
