<svg xmlns="http://www.w3.org/2000/svg" width="20" height="17.781" viewBox="0 0 20 17.781">
  <defs>
    <style>
      .cls-1 {
        fill: #9b9b9b;
        fill-rule: evenodd;
      }
    </style>
  </defs>
  <path id="cart" class="cls-1" d="M701.294,31.761L701.016,30.2a1.815,1.815,0,0,0-.174-0.33,0.7,0.7,0,0,0-.278-0.243,0.847,0.847,0,0,0-.382-0.087H696.71a0.368,0.368,0,0,0-.417.417v0.834a0.368,0.368,0,0,0,.417.417h2.778l2.431,12.363a2.078,2.078,0,0,0-.625,1.528,2.223,2.223,0,1,0,4.445,0,2.119,2.119,0,0,0-.313-1.111h5.07a2.128,2.128,0,0,0-.312,1.111,2.223,2.223,0,1,0,4.445,0,2.123,2.123,0,0,0-.7-1.6l0.035-.174a0.729,0.729,0,0,0-.156-0.695,0.806,0.806,0,0,0-.643-0.313h-9.793l-0.347-1.667H713.9a0.759,0.759,0,0,0,.5-0.191,0.88,0.88,0,0,0,.295-0.469l1.563-7.223a0.73,0.73,0,0,0-.156-0.695,0.806,0.806,0,0,0-.643-0.312H701.294ZM713.24,45.1a0.83,0.83,0,1,1-.243-0.59A0.809,0.809,0,0,1,713.24,45.1Zm-8.89,0a0.83,0.83,0,1,1-.243-0.59A0.809,0.809,0,0,1,704.35,45.1Zm-1.633-6.112-1.076-5.556h12.78l-1.216,5.556H702.717Z" transform="translate(-696.281 -29.531)"/>
</svg>
