<svg xmlns="http://www.w3.org/2000/svg" width="39.531" height="39.594" viewBox="0 0 39.531 39.594">
  <defs>
    <style>
      .cls-1 {
        fill-rule: evenodd;
      }
    </style>
  </defs>
  <path id="cart" class="cls-1" d="M94,37h8.023l1.7,3.715h21.539c3.316,0,6.686-.595,7.944,1.581a3.5,3.5,0,0,1,.158,2.529q-1.5,2.707-3,5.414l-3,5.454c-0.729,1.244-1.209,2.557-2.411,3.32-1.355.86-3.408,0.791-5.691,0.79h-10.2q-0.357.672-.712,1.344h21.46v6.086l-2.687.04H127.2c1.152,0.965,2.106,1.6,2.529,3.32a4.922,4.922,0,0,1-9.406,2.806c-0.991-2.525.493-5.5,2.411-6.126v-0.04l-14.228.04a4.715,4.715,0,0,1,2.569,3.083c0.8,3.288-2.009,6.654-5.375,6.086a4.915,4.915,0,0,1-1.936-9.011l0.988-.474c-2-.346-3.788-3.046-3.122-5.968,0.163-.716,2.232-4.209,2.647-5.019-2.028-4.281-4.1-8.642-6.125-12.923H94V37Zm2.332,2.332v1.383h3.32l7.233,15.374c-0.434.8-2.564,4.29-3.043,5.612a2.221,2.221,0,0,0,.276,1.937A2.575,2.575,0,0,0,106.41,64.9h21.064V63.519H108.188c-1.46,0-1.973-.223-2.253-0.474a1.866,1.866,0,0,1-.395-1.581,39.2,39.2,0,0,1,2.174-4.031h11.145c1.471,0,3.7.27,4.663-.316a5.856,5.856,0,0,0,1.66-2.371l3-5.454q1.2-2.134,2.411-4.268c0.328-.56.806-1.245,0.513-1.66a0.939,0.939,0,0,0-.948-0.316H102.22q-0.888-1.857-1.778-3.715h-4.11Zm9.959,29.72a2.569,2.569,0,1,1-2.569,2.569A2.569,2.569,0,0,1,106.291,69.052Zm18.615,0a2.569,2.569,0,1,1-2.569,2.569A2.569,2.569,0,0,1,124.906,69.052Z" transform="translate(-94 -37)"/>
</svg>
