<svg xmlns="http://www.w3.org/2000/svg" xmlns:xlink="http://www.w3.org/1999/xlink"><symbol id="icon-arr_down" viewBox="0 0 25.438 14.125"><path d="M-.009 1.406L1.405-.008l11.314 11.314L24.033-.008l1.414 1.414-12.728 12.728z" fill-rule="evenodd"/></symbol><symbol id="icon-arr_left" viewBox="0 0 30.125 55.063"><path d="M27.533 55.074L-.008 27.533 27.533-.008l2.605 2.605L5.203 27.533l24.935 24.935z" fill-rule="evenodd"/></symbol><symbol id="icon-arr_right" viewBox="0 0 30 55"><path d="M2.581-.011L30.007 27.5 2.581 55.007l-2.594-2.6L24.818 27.5-.014 2.591z" fill-rule="evenodd"/></symbol><symbol id="icon-arr_up" viewBox="0 0 25 14"><path d="M25.009 12.606l-1.39 1.4L12.5 2.794 1.381 14.008l-1.39-1.4L12.5-.009z" fill-rule="evenodd"/></symbol><symbol id="icon-bullet" viewBox="0 0 15.781 15.781"><path d="M7.884 0A7.884 7.884 0 110 7.884 7.883 7.883 0 017.884 0zm0 .788a7.1 7.1 0 11-7.1 7.1 7.1 7.1 0 017.1-7.1z" fill-rule="evenodd"/></symbol><symbol id="icon-cart" viewBox="0 0 39.531 39.594"><path d="M0 0h8.023l1.7 3.715h21.539c3.316 0 6.686-.595 7.944 1.581a3.5 3.5 0 01.158 2.529l-3 5.414-3 5.454c-.729 1.244-1.209 2.557-2.411 3.32-1.355.86-3.408.791-5.691.79h-10.2l-.712 1.344h21.46v6.086l-2.687.04h.077c1.152.965 2.106 1.6 2.529 3.32a4.922 4.922 0 01-9.406 2.806c-.991-2.525.493-5.5 2.411-6.126v-.04l-14.228.04a4.715 4.715 0 012.569 3.083c.8 3.288-2.009 6.654-5.375 6.086a4.915 4.915 0 01-1.936-9.011l.988-.474c-2-.346-3.788-3.046-3.122-5.968.163-.716 2.232-4.209 2.647-5.019-2.028-4.281-4.1-8.642-6.125-12.923H0V0zm2.332 2.332v1.383h3.32l7.233 15.374c-.434.8-2.564 4.29-3.043 5.612a2.221 2.221 0 00.276 1.937A2.575 2.575 0 0012.41 27.9h21.064v-1.381H14.188c-1.46 0-1.973-.223-2.253-.474a1.866 1.866 0 01-.395-1.581 39.2 39.2 0 012.174-4.031h11.145c1.471 0 3.7.27 4.663-.316a5.856 5.856 0 001.66-2.371l3-5.454q1.2-2.134 2.411-4.268c.328-.56.806-1.245.513-1.66a.939.939 0 00-.948-.316H8.22L6.442 2.333h-4.11zm9.959 29.72a2.569 2.569 0 11-2.569 2.569 2.569 2.569 0 012.569-2.569zm18.615 0a2.569 2.569 0 11-2.569 2.569 2.569 2.569 0 012.569-2.569z" fill-rule="evenodd"/></symbol><symbol id="icon-cart_fill" viewBox="0 0 20 17.781"><path d="M5.013 2.23L4.735.669a1.815 1.815 0 00-.174-.33.7.7 0 00-.278-.243.847.847 0 00-.382-.087H.429a.368.368 0 00-.417.417v.834a.368.368 0 00.417.417h2.778L5.638 14.04a2.078 2.078 0 00-.625 1.528 2.223 2.223 0 104.445 0 2.119 2.119 0 00-.313-1.111h5.07a2.128 2.128 0 00-.312 1.111 2.223 2.223 0 104.445 0 2.123 2.123 0 00-.7-1.6l.035-.174a.729.729 0 00-.156-.695.806.806 0 00-.643-.313H7.091l-.347-1.667h10.875a.759.759 0 00.5-.191.88.88 0 00.295-.469l1.563-7.223a.73.73 0 00-.156-.695.806.806 0 00-.643-.312H5.013zm11.946 13.339a.83.83 0 11-.243-.59.809.809 0 01.243.59zm-8.89 0a.83.83 0 11-.243-.59.809.809 0 01.243.59zM6.436 9.457L5.36 3.901h12.78l-1.216 5.556H6.436z" fill-rule="evenodd"/></symbol><symbol id="icon-check" viewBox="0 0 11 7.938"><path d="M4.288 5.497l5.5-5.5 1.222 1.222L4.289 7.94.012 3.663l1.222-1.222z" fill-rule="evenodd"/></symbol><symbol id="icon-close" viewBox="0 0 14 14"><path d="M14 1.4L12.6 0 7 5.6 1.4 0 0 1.4 5.6 7 0 12.6 1.4 14 7 8.4l5.6 5.6 1.4-1.4L8.4 7z" fill-rule="evenodd"/></symbol><symbol id="icon-compare" viewBox="0 0 34 35"><path d="M0 10h8v25H0V10zm1 1h6v23H1V11zM13 0h8v35h-8V0zm1 1h6v33h-6V1zm12 18h8v16h-8V19zm1 1h6v14h-6V20z" fill-rule="evenodd"/></symbol><symbol id="icon-compare_fill" viewBox="0 0 34 35"><path d="M0 10h8v25H0V10zM13 0h8v35h-8V0zm13 19h8v16h-8V19z" fill-rule="evenodd"/></symbol><symbol id="icon-fav" viewBox="0 0 44 42.094"><path d="M22 6.094c8.8-11.729 22-4.7 22 8s-22 28-22 28-22-15.3-22-28 13.2-20.018 22-8zm0 2c7.634-10.157 20.016-6.62 20.016 6.519C42.016 26.22 22 40.094 22 40.094S1.984 26.22 1.984 14.613C1.984 1.317 14.317-2.194 22 8.094z" fill-rule="evenodd"/></symbol><symbol id="icon-fav_fill" viewBox="0 0 44 42.094"><path d="M22 6.094c8.8-11.729 22-4.7 22 8s-22 28-22 28-22-15.3-22-28 13.2-20.018 22-8z" fill-rule="evenodd"/></symbol><symbol id="icon-filter" viewBox="0 0 48 36"><path d="M48 7H27.914a6 6 0 01-11.828 0H0V5h16.086a6 6 0 0111.828 0H48v2zM22 2a4 4 0 11-4 4 4 4 0 014-4zm26 17h-4.086a6 6 0 01-11.828 0H0v-2h32.086a6 6 0 0111.828 0H48v2zm-10-5a4 4 0 11-4 4 4 4 0 014-4zm10 17H17.914a6 6 0 01-11.828 0H0v-2h6.086a6 6 0 0111.828 0H48v2zm-36-5a4 4 0 11-4 4 4 4 0 014-4z" fill-rule="evenodd"/></symbol><symbol id="icon-toggle" viewBox="0 0 37 24"><path d="M0 0h37v4H0V0zm0 10h37v4H0v-4zm0 10h37v4H0v-4z" fill-rule="evenodd"/></symbol><symbol id="icon-zoom" viewBox="0 0 37.219 37"><path d="M24.648 21.732l1.246.415 11.313 9.9v1.415l-3.535 3.535h-1.414l-9.9-11.313-.4-1.2a13.673 13.673 0 112.69-2.752zM4.884 4.905a12.384 12.384 0 110 17.513 12.384 12.384 0 010-17.513zm1.764 1.774a9.875 9.875 0 110 13.965 9.875 9.875 0 010-13.965zM7.739 7.77a8.332 8.332 0 110 11.783A8.331 8.331 0 017.738 7.77zm16.034 17.913l-.707-2.122.707-.707 2.122.707 9.9 9.9-2.121 2.121z" fill-rule="evenodd"/></symbol><symbol id="icon-zoom_fill" viewBox="0 0 34.906 34.906"><path d="M23.173 21.083l1.847 1.109 9.9 9.9-2.828 2.828-9.9-9.9-1.109-1.847a13 13 0 112.09-2.09zM6.673 6.676a8.942 8.942 0 110 12.646 8.942 8.942 0 01.003-12.646z" fill-rule="evenodd"/></symbol> <view id="icon-arr_down-view-orange" viewBox="0 0 25.438 14.125"/><view id="icon-arr_down-view-black" viewBox="0 24.125 25.438 14.125"/><view id="icon-arr_down-view-dark" viewBox="0 48.25 25.438 14.125"/><view id="icon-arr_down-view-light" viewBox="0 72.375 25.438 14.125"/><view id="icon-arr_down-view-white" viewBox="0 96.5 25.438 14.125"/><view id="icon-arr_left-view-orange" viewBox="0 120.625 30.125 55.063"/><view id="icon-arr_left-view-black" viewBox="0 185.688 30.125 55.063"/><view id="icon-arr_left-view-dark" viewBox="0 250.751 30.125 55.063"/><view id="icon-arr_left-view-light" viewBox="0 315.814 30.125 55.063"/><view id="icon-arr_left-view-white" viewBox="0 380.877 30.125 55.063"/><view id="icon-arr_right-view-orange" viewBox="0 445.94 30 55"/><view id="icon-arr_right-view-black" viewBox="0 510.94 30 55"/><view id="icon-arr_right-view-dark" viewBox="0 575.94 30 55"/><view id="icon-arr_right-view-light" viewBox="0 640.94 30 55"/><view id="icon-arr_right-view-white" viewBox="0 705.94 30 55"/><view id="icon-arr_up-view-orange" viewBox="0 770.94 25 14"/><view id="icon-arr_up-view-black" viewBox="0 794.94 25 14"/><view id="icon-arr_up-view-dark" viewBox="0 818.94 25 14"/><view id="icon-arr_up-view-light" viewBox="0 842.94 25 14"/><view id="icon-arr_up-view-white" viewBox="0 866.94 25 14"/><view id="icon-bullet-view-orange" viewBox="0 890.94 15.781 15.781"/><view id="icon-bullet-view-black" viewBox="0 916.721 15.781 15.781"/><view id="icon-bullet-view-dark" viewBox="0 942.5020000000001 15.781 15.781"/><view id="icon-bullet-view-light" viewBox="0 968.283 15.781 15.781"/><view id="icon-bullet-view-white" viewBox="0 994.0640000000001 15.781 15.781"/><view id="icon-cart-view-orange" viewBox="0 1019.845 39.531 39.594"/><view id="icon-cart-view-black" viewBox="0 1069.439 39.531 39.594"/><view id="icon-cart-view-dark" viewBox="0 1119.0330000000001 39.531 39.594"/><view id="icon-cart-view-light" viewBox="0 1168.627 39.531 39.594"/><view id="icon-cart-view-white" viewBox="0 1218.221 39.531 39.594"/><view id="icon-cart_fill-view-orange" viewBox="0 1267.815 20 17.781"/><view id="icon-cart_fill-view-black" viewBox="0 1295.596 20 17.781"/><view id="icon-cart_fill-view-dark" viewBox="0 1323.377 20 17.781"/><view id="icon-cart_fill-view-light" viewBox="0 1351.1580000000001 20 17.781"/><view id="icon-cart_fill-view-white" viewBox="0 1378.939 20 17.781"/><view id="icon-check-view-orange" viewBox="0 1406.72 11 7.938"/><view id="icon-check-view-black" viewBox="0 1424.6580000000001 11 7.938"/><view id="icon-check-view-dark" viewBox="0 1442.596 11 7.938"/><view id="icon-check-view-light" viewBox="0 1460.534 11 7.938"/><view id="icon-check-view-white" viewBox="0 1478.472 11 7.938"/><view id="icon-close-view-orange" viewBox="0 1496.41 14 14"/><view id="icon-close-view-black" viewBox="0 1520.41 14 14"/><view id="icon-close-view-dark" viewBox="0 1544.41 14 14"/><view id="icon-close-view-light" viewBox="0 1568.41 14 14"/><view id="icon-close-view-white" viewBox="0 1592.41 14 14"/><view id="icon-compare-view-orange" viewBox="0 1616.41 34 35"/><view id="icon-compare-view-black" viewBox="0 1661.41 34 35"/><view id="icon-compare-view-dark" viewBox="0 1706.41 34 35"/><view id="icon-compare-view-light" viewBox="0 1751.41 34 35"/><view id="icon-compare-view-white" viewBox="0 1796.41 34 35"/><view id="icon-compare_fill-view-orange" viewBox="0 1841.41 34 35"/><view id="icon-compare_fill-view-black" viewBox="0 1886.41 34 35"/><view id="icon-compare_fill-view-dark" viewBox="0 1931.41 34 35"/><view id="icon-compare_fill-view-light" viewBox="0 1976.41 34 35"/><view id="icon-compare_fill-view-white" viewBox="0 2021.41 34 35"/><view id="icon-fav-view-orange" viewBox="0 2066.41 44 42.094"/><view id="icon-fav-view-black" viewBox="0 2118.504 44 42.094"/><view id="icon-fav-view-dark" viewBox="0 2170.598 44 42.094"/><view id="icon-fav-view-light" viewBox="0 2222.692 44 42.094"/><view id="icon-fav-view-white" viewBox="0 2274.786 44 42.094"/><view id="icon-fav_fill-view-orange" viewBox="0 2326.88 44 42.094"/><view id="icon-fav_fill-view-black" viewBox="0 2378.974 44 42.094"/><view id="icon-fav_fill-view-dark" viewBox="0 2431.068 44 42.094"/><view id="icon-fav_fill-view-light" viewBox="0 2483.1620000000003 44 42.094"/><view id="icon-fav_fill-view-white" viewBox="0 2535.2560000000003 44 42.094"/><view id="icon-filter-view-orange" viewBox="0 2587.3500000000004 48 36"/><view id="icon-filter-view-black" viewBox="0 2633.3500000000004 48 36"/><view id="icon-filter-view-dark" viewBox="0 2679.3500000000004 48 36"/><view id="icon-filter-view-light" viewBox="0 2725.3500000000004 48 36"/><view id="icon-filter-view-white" viewBox="0 2771.3500000000004 48 36"/><view id="icon-toggle-view-orange" viewBox="0 2817.3500000000004 37 24"/><view id="icon-toggle-view-black" viewBox="0 2851.3500000000004 37 24"/><view id="icon-toggle-view-dark" viewBox="0 2885.3500000000004 37 24"/><view id="icon-toggle-view-light" viewBox="0 2919.3500000000004 37 24"/><view id="icon-toggle-view-white" viewBox="0 2953.3500000000004 37 24"/><view id="icon-zoom-view-orange" viewBox="0 2987.3500000000004 37.219 37"/><view id="icon-zoom-view-black" viewBox="0 3034.3500000000004 37.219 37"/><view id="icon-zoom-view-dark" viewBox="0 3081.3500000000004 37.219 37"/><view id="icon-zoom-view-light" viewBox="0 3128.3500000000004 37.219 37"/><view id="icon-zoom-view-white" viewBox="0 3175.3500000000004 37.219 37"/><view id="icon-zoom_fill-view-orange" viewBox="0 3222.3500000000004 34.906 34.906"/><view id="icon-zoom_fill-view-black" viewBox="0 3267.2560000000003 34.906 34.906"/><view id="icon-zoom_fill-view-dark" viewBox="0 3312.1620000000003 34.906 34.906"/><view id="icon-zoom_fill-view-light" viewBox="0 3357.068 34.906 34.906"/><view id="icon-zoom_fill-view-white" viewBox="0 3401.974 34.906 34.906"/> <use xlink:href="#icon-arr_down" x="0" y="0" width="25.438" height="14.125" style="fill:#F58320"/><use xlink:href="#icon-arr_down" x="0" y="24.125" width="25.438" height="14.125" style="fill:#232323"/><use xlink:href="#icon-arr_down" x="0" y="48.25" width="25.438" height="14.125" style="fill:#575757"/><use xlink:href="#icon-arr_down" x="0" y="72.375" width="25.438" height="14.125" style="fill:#9B9B9B"/><use xlink:href="#icon-arr_down" x="0" y="96.5" width="25.438" height="14.125" style="fill:#ffffff"/><use xlink:href="#icon-arr_left" x="0" y="120.625" width="30.125" height="55.063" style="fill:#F58320"/><use xlink:href="#icon-arr_left" x="0" y="185.688" width="30.125" height="55.063" style="fill:#232323"/><use xlink:href="#icon-arr_left" x="0" y="250.751" width="30.125" height="55.063" style="fill:#575757"/><use xlink:href="#icon-arr_left" x="0" y="315.814" width="30.125" height="55.063" style="fill:#9B9B9B"/><use xlink:href="#icon-arr_left" x="0" y="380.877" width="30.125" height="55.063" style="fill:#ffffff"/><use xlink:href="#icon-arr_right" x="0" y="445.94" width="30" height="55" style="fill:#F58320"/><use xlink:href="#icon-arr_right" x="0" y="510.94" width="30" height="55" style="fill:#232323"/><use xlink:href="#icon-arr_right" x="0" y="575.94" width="30" height="55" style="fill:#575757"/><use xlink:href="#icon-arr_right" x="0" y="640.94" width="30" height="55" style="fill:#9B9B9B"/><use xlink:href="#icon-arr_right" x="0" y="705.94" width="30" height="55" style="fill:#ffffff"/><use xlink:href="#icon-arr_up" x="0" y="770.94" width="25" height="14" style="fill:#F58320"/><use xlink:href="#icon-arr_up" x="0" y="794.94" width="25" height="14" style="fill:#232323"/><use xlink:href="#icon-arr_up" x="0" y="818.94" width="25" height="14" style="fill:#575757"/><use xlink:href="#icon-arr_up" x="0" y="842.94" width="25" height="14" style="fill:#9B9B9B"/><use xlink:href="#icon-arr_up" x="0" y="866.94" width="25" height="14" style="fill:#ffffff"/><use xlink:href="#icon-bullet" x="0" y="890.94" width="15.781" height="15.781" style="fill:#F58320"/><use xlink:href="#icon-bullet" x="0" y="916.721" width="15.781" height="15.781" style="fill:#232323"/><use xlink:href="#icon-bullet" x="0" y="942.5020000000001" width="15.781" height="15.781" style="fill:#575757"/><use xlink:href="#icon-bullet" x="0" y="968.283" width="15.781" height="15.781" style="fill:#9B9B9B"/><use xlink:href="#icon-bullet" x="0" y="994.0640000000001" width="15.781" height="15.781" style="fill:#ffffff"/><use xlink:href="#icon-cart" x="0" y="1019.845" width="39.531" height="39.594" style="fill:#F58320"/><use xlink:href="#icon-cart" x="0" y="1069.439" width="39.531" height="39.594" style="fill:#232323"/><use xlink:href="#icon-cart" x="0" y="1119.0330000000001" width="39.531" height="39.594" style="fill:#575757"/><use xlink:href="#icon-cart" x="0" y="1168.627" width="39.531" height="39.594" style="fill:#9B9B9B"/><use xlink:href="#icon-cart" x="0" y="1218.221" width="39.531" height="39.594" style="fill:#ffffff"/><use xlink:href="#icon-cart_fill" x="0" y="1267.815" width="20" height="17.781" style="fill:#F58320"/><use xlink:href="#icon-cart_fill" x="0" y="1295.596" width="20" height="17.781" style="fill:#232323"/><use xlink:href="#icon-cart_fill" x="0" y="1323.377" width="20" height="17.781" style="fill:#575757"/><use xlink:href="#icon-cart_fill" x="0" y="1351.1580000000001" width="20" height="17.781" style="fill:#9B9B9B"/><use xlink:href="#icon-cart_fill" x="0" y="1378.939" width="20" height="17.781" style="fill:#ffffff"/><use xlink:href="#icon-check" x="0" y="1406.72" width="11" height="7.938" style="fill:#F58320"/><use xlink:href="#icon-check" x="0" y="1424.6580000000001" width="11" height="7.938" style="fill:#232323"/><use xlink:href="#icon-check" x="0" y="1442.596" width="11" height="7.938" style="fill:#575757"/><use xlink:href="#icon-check" x="0" y="1460.534" width="11" height="7.938" style="fill:#9B9B9B"/><use xlink:href="#icon-check" x="0" y="1478.472" width="11" height="7.938" style="fill:#ffffff"/><use xlink:href="#icon-close" x="0" y="1496.41" width="14" height="14" style="fill:#F58320"/><use xlink:href="#icon-close" x="0" y="1520.41" width="14" height="14" style="fill:#232323"/><use xlink:href="#icon-close" x="0" y="1544.41" width="14" height="14" style="fill:#575757"/><use xlink:href="#icon-close" x="0" y="1568.41" width="14" height="14" style="fill:#9B9B9B"/><use xlink:href="#icon-close" x="0" y="1592.41" width="14" height="14" style="fill:#ffffff"/><use xlink:href="#icon-compare" x="0" y="1616.41" width="34" height="35" style="fill:#F58320"/><use xlink:href="#icon-compare" x="0" y="1661.41" width="34" height="35" style="fill:#232323"/><use xlink:href="#icon-compare" x="0" y="1706.41" width="34" height="35" style="fill:#575757"/><use xlink:href="#icon-compare" x="0" y="1751.41" width="34" height="35" style="fill:#9B9B9B"/><use xlink:href="#icon-compare" x="0" y="1796.41" width="34" height="35" style="fill:#ffffff"/><use xlink:href="#icon-compare_fill" x="0" y="1841.41" width="34" height="35" style="fill:#F58320"/><use xlink:href="#icon-compare_fill" x="0" y="1886.41" width="34" height="35" style="fill:#232323"/><use xlink:href="#icon-compare_fill" x="0" y="1931.41" width="34" height="35" style="fill:#575757"/><use xlink:href="#icon-compare_fill" x="0" y="1976.41" width="34" height="35" style="fill:#9B9B9B"/><use xlink:href="#icon-compare_fill" x="0" y="2021.41" width="34" height="35" style="fill:#ffffff"/><use xlink:href="#icon-fav" x="0" y="2066.41" width="44" height="42.094" style="fill:#F58320"/><use xlink:href="#icon-fav" x="0" y="2118.504" width="44" height="42.094" style="fill:#232323"/><use xlink:href="#icon-fav" x="0" y="2170.598" width="44" height="42.094" style="fill:#575757"/><use xlink:href="#icon-fav" x="0" y="2222.692" width="44" height="42.094" style="fill:#9B9B9B"/><use xlink:href="#icon-fav" x="0" y="2274.786" width="44" height="42.094" style="fill:#ffffff"/><use xlink:href="#icon-fav_fill" x="0" y="2326.88" width="44" height="42.094" style="fill:#F58320"/><use xlink:href="#icon-fav_fill" x="0" y="2378.974" width="44" height="42.094" style="fill:#232323"/><use xlink:href="#icon-fav_fill" x="0" y="2431.068" width="44" height="42.094" style="fill:#575757"/><use xlink:href="#icon-fav_fill" x="0" y="2483.1620000000003" width="44" height="42.094" style="fill:#9B9B9B"/><use xlink:href="#icon-fav_fill" x="0" y="2535.2560000000003" width="44" height="42.094" style="fill:#ffffff"/><use xlink:href="#icon-filter" x="0" y="2587.3500000000004" width="48" height="36" style="fill:#F58320"/><use xlink:href="#icon-filter" x="0" y="2633.3500000000004" width="48" height="36" style="fill:#232323"/><use xlink:href="#icon-filter" x="0" y="2679.3500000000004" width="48" height="36" style="fill:#575757"/><use xlink:href="#icon-filter" x="0" y="2725.3500000000004" width="48" height="36" style="fill:#9B9B9B"/><use xlink:href="#icon-filter" x="0" y="2771.3500000000004" width="48" height="36" style="fill:#ffffff"/><use xlink:href="#icon-toggle" x="0" y="2817.3500000000004" width="37" height="24" style="fill:#F58320"/><use xlink:href="#icon-toggle" x="0" y="2851.3500000000004" width="37" height="24" style="fill:#232323"/><use xlink:href="#icon-toggle" x="0" y="2885.3500000000004" width="37" height="24" style="fill:#575757"/><use xlink:href="#icon-toggle" x="0" y="2919.3500000000004" width="37" height="24" style="fill:#9B9B9B"/><use xlink:href="#icon-toggle" x="0" y="2953.3500000000004" width="37" height="24" style="fill:#ffffff"/><use xlink:href="#icon-zoom" x="0" y="2987.3500000000004" width="37.219" height="37" style="fill:#F58320"/><use xlink:href="#icon-zoom" x="0" y="3034.3500000000004" width="37.219" height="37" style="fill:#232323"/><use xlink:href="#icon-zoom" x="0" y="3081.3500000000004" width="37.219" height="37" style="fill:#575757"/><use xlink:href="#icon-zoom" x="0" y="3128.3500000000004" width="37.219" height="37" style="fill:#9B9B9B"/><use xlink:href="#icon-zoom" x="0" y="3175.3500000000004" width="37.219" height="37" style="fill:#ffffff"/><use xlink:href="#icon-zoom_fill" x="0" y="3222.3500000000004" width="34.906" height="34.906" style="fill:#F58320"/><use xlink:href="#icon-zoom_fill" x="0" y="3267.2560000000003" width="34.906" height="34.906" style="fill:#232323"/><use xlink:href="#icon-zoom_fill" x="0" y="3312.1620000000003" width="34.906" height="34.906" style="fill:#575757"/><use xlink:href="#icon-zoom_fill" x="0" y="3357.068" width="34.906" height="34.906" style="fill:#9B9B9B"/><use xlink:href="#icon-zoom_fill" x="0" y="3401.974" width="34.906" height="34.906" style="fill:#ffffff"/></svg>