<svg xmlns="http://www.w3.org/2000/svg" xmlns:xlink="http://www.w3.org/1999/xlink"><symbol id="icon-arr_down" viewBox="0 0 25.438 14.125"><path d="M-.009 1.406L1.405-.008l11.314 11.314L24.033-.008l1.414 1.414-12.728 12.728z" fill-rule="evenodd"/></symbol><symbol id="icon-arr_left" viewBox="0 0 30.125 55.063"><path d="M27.533 55.074L-.008 27.533 27.533-.008l2.605 2.605L5.203 27.533l24.935 24.935z" fill-rule="evenodd"/></symbol><symbol id="icon-arr_right" viewBox="0 0 30 55"><path d="M2.581-.011L30.007 27.5 2.581 55.007l-2.594-2.6L24.818 27.5-.014 2.591z" fill-rule="evenodd"/></symbol><symbol id="icon-arr_up" viewBox="0 0 25 14"><path d="M25.009 12.606l-1.39 1.4L12.5 2.794 1.381 14.008l-1.39-1.4L12.5-.009z" fill-rule="evenodd"/></symbol><symbol id="icon-bullet" viewBox="0 0 15.781 15.781"><path d="M7.884 0A7.884 7.884 0 110 7.884 7.883 7.883 0 017.884 0zm0 .788a7.1 7.1 0 11-7.1 7.1 7.1 7.1 0 017.1-7.1z" fill-rule="evenodd"/></symbol><symbol id="icon-compare" viewBox="0 0 34 35"><path d="M0 10h8v25H0V10zm1 1h6v23H1V11zM13 0h8v35h-8V0zm1 1h6v33h-6V1zm12 18h8v16h-8V19zm1 1h6v14h-6V20z" fill-rule="evenodd"/></symbol><symbol id="icon-compare_fill" viewBox="0 0 34 35"><path d="M0 10h8v25H0V10zM13 0h8v35h-8V0zm13 19h8v16h-8V19z" fill-rule="evenodd"/></symbol><symbol id="icon-fav" viewBox="0 0 44 42.094"><path d="M22 6.094c8.8-11.729 22-4.7 22 8s-22 28-22 28-22-15.3-22-28 13.2-20.018 22-8zm0 2c7.634-10.157 20.016-6.62 20.016 6.519C42.016 26.22 22 40.094 22 40.094S1.984 26.22 1.984 14.613C1.984 1.317 14.317-2.194 22 8.094z" fill-rule="evenodd"/></symbol><symbol id="icon-fav_fill" viewBox="0 0 44 42.094"><path d="M22 6.094c8.8-11.729 22-4.7 22 8s-22 28-22 28-22-15.3-22-28 13.2-20.018 22-8z" fill-rule="evenodd"/></symbol><symbol id="icon-filter" viewBox="0 0 48 36"><path d="M48 7H27.914a6 6 0 01-11.828 0H0V5h16.086a6 6 0 0111.828 0H48v2zM22 2a4 4 0 11-4 4 4 4 0 014-4zm26 17h-4.086a6 6 0 01-11.828 0H0v-2h32.086a6 6 0 0111.828 0H48v2zm-10-5a4 4 0 11-4 4 4 4 0 014-4zm10 17H17.914a6 6 0 01-11.828 0H0v-2h6.086a6 6 0 0111.828 0H48v2zm-36-5a4 4 0 11-4 4 4 4 0 014-4z" fill-rule="evenodd"/></symbol><symbol id="icon-toggle" viewBox="0 0 37 24"><path d="M0 0h37v4H0V0zm0 10h37v4H0v-4zm0 10h37v4H0v-4z" fill-rule="evenodd"/></symbol><symbol id="icon-zoom" viewBox="0 0 37.219 37"><path d="M24.648 21.732l1.246.415 11.313 9.9v1.415l-3.535 3.535h-1.414l-9.9-11.313-.4-1.2a13.673 13.673 0 112.69-2.752zM4.884 4.905a12.384 12.384 0 110 17.513 12.384 12.384 0 010-17.513zm1.764 1.774a9.875 9.875 0 110 13.965 9.875 9.875 0 010-13.965zM7.739 7.77a8.332 8.332 0 110 11.783A8.331 8.331 0 017.738 7.77zm16.034 17.913l-.707-2.122.707-.707 2.122.707 9.9 9.9-2.121 2.121z" fill-rule="evenodd"/></symbol><symbol id="icon-zoom_fill" viewBox="0 0 34.906 34.906"><path d="M23.173 21.083l1.847 1.109 9.9 9.9-2.828 2.828-9.9-9.9-1.109-1.847a13 13 0 112.09-2.09zM6.673 6.676a8.942 8.942 0 110 12.646 8.942 8.942 0 01.003-12.646z" fill-rule="evenodd"/></symbol> <view id="icon-arr_down-view-orange" viewBox="0 0 25.438 14.125"/><view id="icon-arr_down-view-black" viewBox="0 24.125 25.438 14.125"/><view id="icon-arr_down-view-dark" viewBox="0 48.25 25.438 14.125"/><view id="icon-arr_down-view-light" viewBox="0 72.375 25.438 14.125"/><view id="icon-arr_down-view-white" viewBox="0 96.5 25.438 14.125"/><view id="icon-arr_left-view-orange" viewBox="0 120.625 30.125 55.063"/><view id="icon-arr_left-view-black" viewBox="0 185.688 30.125 55.063"/><view id="icon-arr_left-view-dark" viewBox="0 250.751 30.125 55.063"/><view id="icon-arr_left-view-light" viewBox="0 315.814 30.125 55.063"/><view id="icon-arr_left-view-white" viewBox="0 380.877 30.125 55.063"/><view id="icon-arr_right-view-orange" viewBox="0 445.94 30 55"/><view id="icon-arr_right-view-black" viewBox="0 510.94 30 55"/><view id="icon-arr_right-view-dark" viewBox="0 575.94 30 55"/><view id="icon-arr_right-view-light" viewBox="0 640.94 30 55"/><view id="icon-arr_right-view-white" viewBox="0 705.94 30 55"/><view id="icon-arr_up-view-orange" viewBox="0 770.94 25 14"/><view id="icon-arr_up-view-black" viewBox="0 794.94 25 14"/><view id="icon-arr_up-view-dark" viewBox="0 818.94 25 14"/><view id="icon-arr_up-view-light" viewBox="0 842.94 25 14"/><view id="icon-arr_up-view-white" viewBox="0 866.94 25 14"/><view id="icon-bullet-view-orange" viewBox="0 890.94 15.781 15.781"/><view id="icon-bullet-view-black" viewBox="0 916.721 15.781 15.781"/><view id="icon-bullet-view-dark" viewBox="0 942.5020000000001 15.781 15.781"/><view id="icon-bullet-view-light" viewBox="0 968.283 15.781 15.781"/><view id="icon-bullet-view-white" viewBox="0 994.0640000000001 15.781 15.781"/><view id="icon-compare-view-orange" viewBox="0 1019.845 34 35"/><view id="icon-compare-view-black" viewBox="0 1064.845 34 35"/><view id="icon-compare-view-dark" viewBox="0 1109.845 34 35"/><view id="icon-compare-view-light" viewBox="0 1154.845 34 35"/><view id="icon-compare-view-white" viewBox="0 1199.845 34 35"/><view id="icon-compare_fill-view-orange" viewBox="0 1244.845 34 35"/><view id="icon-compare_fill-view-black" viewBox="0 1289.845 34 35"/><view id="icon-compare_fill-view-dark" viewBox="0 1334.845 34 35"/><view id="icon-compare_fill-view-light" viewBox="0 1379.845 34 35"/><view id="icon-compare_fill-view-white" viewBox="0 1424.845 34 35"/><view id="icon-fav-view-orange" viewBox="0 1469.845 44 42.094"/><view id="icon-fav-view-black" viewBox="0 1521.939 44 42.094"/><view id="icon-fav-view-dark" viewBox="0 1574.0330000000001 44 42.094"/><view id="icon-fav-view-light" viewBox="0 1626.127 44 42.094"/><view id="icon-fav-view-white" viewBox="0 1678.221 44 42.094"/><view id="icon-fav_fill-view-orange" viewBox="0 1730.315 44 42.094"/><view id="icon-fav_fill-view-black" viewBox="0 1782.409 44 42.094"/><view id="icon-fav_fill-view-dark" viewBox="0 1834.5030000000002 44 42.094"/><view id="icon-fav_fill-view-light" viewBox="0 1886.597 44 42.094"/><view id="icon-fav_fill-view-white" viewBox="0 1938.691 44 42.094"/><view id="icon-filter-view-orange" viewBox="0 1990.785 48 36"/><view id="icon-filter-view-black" viewBox="0 2036.785 48 36"/><view id="icon-filter-view-dark" viewBox="0 2082.785 48 36"/><view id="icon-filter-view-light" viewBox="0 2128.785 48 36"/><view id="icon-filter-view-white" viewBox="0 2174.785 48 36"/><view id="icon-toggle-view-orange" viewBox="0 2220.785 37 24"/><view id="icon-toggle-view-black" viewBox="0 2254.785 37 24"/><view id="icon-toggle-view-dark" viewBox="0 2288.785 37 24"/><view id="icon-toggle-view-light" viewBox="0 2322.785 37 24"/><view id="icon-toggle-view-white" viewBox="0 2356.785 37 24"/><view id="icon-zoom-view-orange" viewBox="0 2390.785 37.219 37"/><view id="icon-zoom-view-black" viewBox="0 2437.785 37.219 37"/><view id="icon-zoom-view-dark" viewBox="0 2484.785 37.219 37"/><view id="icon-zoom-view-light" viewBox="0 2531.785 37.219 37"/><view id="icon-zoom-view-white" viewBox="0 2578.785 37.219 37"/><view id="icon-zoom_fill-view-orange" viewBox="0 2625.785 34.906 34.906"/><view id="icon-zoom_fill-view-black" viewBox="0 2670.691 34.906 34.906"/><view id="icon-zoom_fill-view-dark" viewBox="0 2715.5969999999998 34.906 34.906"/><view id="icon-zoom_fill-view-light" viewBox="0 2760.5029999999997 34.906 34.906"/><view id="icon-zoom_fill-view-white" viewBox="0 2805.4089999999997 34.906 34.906"/> <use xlink:href="#icon-arr_down" x="0" y="0" width="25.438" height="14.125" style="fill:#F58320"/><use xlink:href="#icon-arr_down" x="0" y="24.125" width="25.438" height="14.125" style="fill:#232323"/><use xlink:href="#icon-arr_down" x="0" y="48.25" width="25.438" height="14.125" style="fill:#575757"/><use xlink:href="#icon-arr_down" x="0" y="72.375" width="25.438" height="14.125" style="fill:##9B9B9B"/><use xlink:href="#icon-arr_down" x="0" y="96.5" width="25.438" height="14.125" style="fill:#ffffff"/><use xlink:href="#icon-arr_left" x="0" y="120.625" width="30.125" height="55.063" style="fill:#F58320"/><use xlink:href="#icon-arr_left" x="0" y="185.688" width="30.125" height="55.063" style="fill:#232323"/><use xlink:href="#icon-arr_left" x="0" y="250.751" width="30.125" height="55.063" style="fill:#575757"/><use xlink:href="#icon-arr_left" x="0" y="315.814" width="30.125" height="55.063" style="fill:##9B9B9B"/><use xlink:href="#icon-arr_left" x="0" y="380.877" width="30.125" height="55.063" style="fill:#ffffff"/><use xlink:href="#icon-arr_right" x="0" y="445.94" width="30" height="55" style="fill:#F58320"/><use xlink:href="#icon-arr_right" x="0" y="510.94" width="30" height="55" style="fill:#232323"/><use xlink:href="#icon-arr_right" x="0" y="575.94" width="30" height="55" style="fill:#575757"/><use xlink:href="#icon-arr_right" x="0" y="640.94" width="30" height="55" style="fill:##9B9B9B"/><use xlink:href="#icon-arr_right" x="0" y="705.94" width="30" height="55" style="fill:#ffffff"/><use xlink:href="#icon-arr_up" x="0" y="770.94" width="25" height="14" style="fill:#F58320"/><use xlink:href="#icon-arr_up" x="0" y="794.94" width="25" height="14" style="fill:#232323"/><use xlink:href="#icon-arr_up" x="0" y="818.94" width="25" height="14" style="fill:#575757"/><use xlink:href="#icon-arr_up" x="0" y="842.94" width="25" height="14" style="fill:##9B9B9B"/><use xlink:href="#icon-arr_up" x="0" y="866.94" width="25" height="14" style="fill:#ffffff"/><use xlink:href="#icon-bullet" x="0" y="890.94" width="15.781" height="15.781" style="fill:#F58320"/><use xlink:href="#icon-bullet" x="0" y="916.721" width="15.781" height="15.781" style="fill:#232323"/><use xlink:href="#icon-bullet" x="0" y="942.5020000000001" width="15.781" height="15.781" style="fill:#575757"/><use xlink:href="#icon-bullet" x="0" y="968.283" width="15.781" height="15.781" style="fill:##9B9B9B"/><use xlink:href="#icon-bullet" x="0" y="994.0640000000001" width="15.781" height="15.781" style="fill:#ffffff"/><use xlink:href="#icon-compare" x="0" y="1019.845" width="34" height="35" style="fill:#F58320"/><use xlink:href="#icon-compare" x="0" y="1064.845" width="34" height="35" style="fill:#232323"/><use xlink:href="#icon-compare" x="0" y="1109.845" width="34" height="35" style="fill:#575757"/><use xlink:href="#icon-compare" x="0" y="1154.845" width="34" height="35" style="fill:##9B9B9B"/><use xlink:href="#icon-compare" x="0" y="1199.845" width="34" height="35" style="fill:#ffffff"/><use xlink:href="#icon-compare_fill" x="0" y="1244.845" width="34" height="35" style="fill:#F58320"/><use xlink:href="#icon-compare_fill" x="0" y="1289.845" width="34" height="35" style="fill:#232323"/><use xlink:href="#icon-compare_fill" x="0" y="1334.845" width="34" height="35" style="fill:#575757"/><use xlink:href="#icon-compare_fill" x="0" y="1379.845" width="34" height="35" style="fill:##9B9B9B"/><use xlink:href="#icon-compare_fill" x="0" y="1424.845" width="34" height="35" style="fill:#ffffff"/><use xlink:href="#icon-fav" x="0" y="1469.845" width="44" height="42.094" style="fill:#F58320"/><use xlink:href="#icon-fav" x="0" y="1521.939" width="44" height="42.094" style="fill:#232323"/><use xlink:href="#icon-fav" x="0" y="1574.0330000000001" width="44" height="42.094" style="fill:#575757"/><use xlink:href="#icon-fav" x="0" y="1626.127" width="44" height="42.094" style="fill:##9B9B9B"/><use xlink:href="#icon-fav" x="0" y="1678.221" width="44" height="42.094" style="fill:#ffffff"/><use xlink:href="#icon-fav_fill" x="0" y="1730.315" width="44" height="42.094" style="fill:#F58320"/><use xlink:href="#icon-fav_fill" x="0" y="1782.409" width="44" height="42.094" style="fill:#232323"/><use xlink:href="#icon-fav_fill" x="0" y="1834.5030000000002" width="44" height="42.094" style="fill:#575757"/><use xlink:href="#icon-fav_fill" x="0" y="1886.597" width="44" height="42.094" style="fill:##9B9B9B"/><use xlink:href="#icon-fav_fill" x="0" y="1938.691" width="44" height="42.094" style="fill:#ffffff"/><use xlink:href="#icon-filter" x="0" y="1990.785" width="48" height="36" style="fill:#F58320"/><use xlink:href="#icon-filter" x="0" y="2036.785" width="48" height="36" style="fill:#232323"/><use xlink:href="#icon-filter" x="0" y="2082.785" width="48" height="36" style="fill:#575757"/><use xlink:href="#icon-filter" x="0" y="2128.785" width="48" height="36" style="fill:##9B9B9B"/><use xlink:href="#icon-filter" x="0" y="2174.785" width="48" height="36" style="fill:#ffffff"/><use xlink:href="#icon-toggle" x="0" y="2220.785" width="37" height="24" style="fill:#F58320"/><use xlink:href="#icon-toggle" x="0" y="2254.785" width="37" height="24" style="fill:#232323"/><use xlink:href="#icon-toggle" x="0" y="2288.785" width="37" height="24" style="fill:#575757"/><use xlink:href="#icon-toggle" x="0" y="2322.785" width="37" height="24" style="fill:##9B9B9B"/><use xlink:href="#icon-toggle" x="0" y="2356.785" width="37" height="24" style="fill:#ffffff"/><use xlink:href="#icon-zoom" x="0" y="2390.785" width="37.219" height="37" style="fill:#F58320"/><use xlink:href="#icon-zoom" x="0" y="2437.785" width="37.219" height="37" style="fill:#232323"/><use xlink:href="#icon-zoom" x="0" y="2484.785" width="37.219" height="37" style="fill:#575757"/><use xlink:href="#icon-zoom" x="0" y="2531.785" width="37.219" height="37" style="fill:##9B9B9B"/><use xlink:href="#icon-zoom" x="0" y="2578.785" width="37.219" height="37" style="fill:#ffffff"/><use xlink:href="#icon-zoom_fill" x="0" y="2625.785" width="34.906" height="34.906" style="fill:#F58320"/><use xlink:href="#icon-zoom_fill" x="0" y="2670.691" width="34.906" height="34.906" style="fill:#232323"/><use xlink:href="#icon-zoom_fill" x="0" y="2715.5969999999998" width="34.906" height="34.906" style="fill:#575757"/><use xlink:href="#icon-zoom_fill" x="0" y="2760.5029999999997" width="34.906" height="34.906" style="fill:##9B9B9B"/><use xlink:href="#icon-zoom_fill" x="0" y="2805.4089999999997" width="34.906" height="34.906" style="fill:#ffffff"/></svg>